<?xml version="1.0" encoding="UTF-8" standalone="no"?>
<svg
   width="1000"
   height="1000"
   viewBox="0 0 1000 1000"
   version="1.1"
   id="svg1"
   sodipodi:docname="f_f.asc.svg"
   inkscape:version="1.4.2 (f4327f4, 2025-05-13)"
   xmlns:inkscape="http://www.inkscape.org/namespaces/inkscape"
   xmlns:sodipodi="http://sodipodi.sourceforge.net/DTD/sodipodi-0.dtd"
   xmlns="http://www.w3.org/2000/svg"
   xmlns:svg="http://www.w3.org/2000/svg">
  <defs
     id="defs1" />
  <sodipodi:namedview
     id="namedview1"
     pagecolor="#ffffff"
     bordercolor="#000000"
     borderopacity="0.25"
     inkscape:document-units="px"
     showguides="true"
     inkscape:current-layer="layer1"
     inkscape:showpageshadow="2"
     inkscape:pageopacity="0.0"
     inkscape:pagecheckerboard="0"
     inkscape:deskcolor="#d1d1d1"
     inkscape:zoom="0.2062984"
     inkscape:cx="-579.258"
     inkscape:cy="-1177.9054"
     inkscape:window-width="2345"
     inkscape:window-height="1360"
     inkscape:window-x="963"
     inkscape:window-y="0"
     inkscape:window-maximized="0">
    <sodipodi:guide
       position="500,1244"
       orientation="0,1"
       id="guide1"
       inkscape:label="Lange Oberlaenge"
       inkscape:locked="false" />
    <sodipodi:guide
       position="500,1000"
       orientation="0,1"
       id="guide2"
       inkscape:label="Oberlaenge"
       inkscape:locked="false" />
    <sodipodi:guide
       position="500,835"
       orientation="0,1"
       id="guide3"
       inkscape:label="t-Hoehe"
       inkscape:locked="false" />
    <sodipodi:guide
       position="500,753"
       orientation="0,1"
       id="guide4"
       inkscape:label="x-Hoehe Ueberschuss"
       inkscape:locked="false" />
    <sodipodi:guide
       position="500,743"
       orientation="0,1"
       id="guide5"
       inkscape:label="x-Hoehe"
       inkscape:locked="false" />
    <sodipodi:guide
       position="500,293"
       orientation="0,1"
       id="guide6"
       inkscape:label="Grundlinie"
       inkscape:locked="false" />
    <sodipodi:guide
       position="500,283"
       orientation="0,1"
       id="guide7"
       inkscape:label="Grundlinie Ueberschuss"
       inkscape:locked="false" />
    <sodipodi:guide
       position="500,0"
       orientation="0,1"
       id="guide8"
       inkscape:label="Unterlaenge"
       inkscape:locked="false" />
    <sodipodi:guide
       position="500,-10"
       orientation="0,1"
       id="guide9"
       inkscape:label="Unterlaenge Ueberschuss"
       inkscape:locked="false" />
    <sodipodi:guide
       position="499.27677,983.03428"
       orientation="-1000,0"
       id="guide99"
       inkscape:label="Mitte"
       inkscape:locked="false" />
  </sodipodi:namedview>
  <g
     inkscape:label="Ebene 1"
     inkscape:groupmode="layer"
     id="layer1">
    <path
       id="path1"
       style="fill:#000000;stroke:none"
       inkscape:label="f"
       d="M 513.29492,0.46484375 C 328.7638,-4.5465839 278.62894,238.73386 272.08789,244.49023 c -20.58025,18.11139 -63.24117,9.86368 -86.39258,14.27344 -23.15044,4.41072 -23.39489,19.23812 -0.74023,24.3125 30.86775,5.51194 69.03827,5.59812 78.32617,28.35352 7.90022,26.2225 8.80216,273.16107 -20.96289,516.79687 64.75606,10.37696 94.20417,-58.07229 120.21875,-111.3457 5.8297,-63.23024 7.56344,-323.84737 10.21094,-419.49024 0.068,-2.4557 149.45953,-22.59142 164.42187,14.06641 7.90022,26.22249 8.80411,273.16107 -20.96094,516.79688 66.9906,8.52035 96.83117,-62.41378 121.02149,-112.21485 5.8297,-63.23024 7.56344,-323.84932 10.21094,-419.49218 6.6e-4,-0.0239 101.62395,-5.70754 160.67006,-16.23436 10.65492,-1.89957 16.25066,-4.56617 18.5332,-7.42969 8.07874,-7.64579 -9.55594,-17.17153 -17.98828,-17.20117 -9.4445,-0.0332 -145.78083,2.73128 -160.33984,-2.08594 -19.1465,-67.31898 11.02526,-198.796676 77.80468,-131.5332 C 745.65169,118.34238 754.12928,16.982423 747.17188,0.484375 688.37357,-1.6426778 649.76526,15.896714 620.94141,41.902344 590.92276,5.6634709 557.64228,1.6869626 513.29492,0.46484375 Z M 476.55078,52.880859 c 70.82998,2.20722 79.79167,67.913851 70.53125,185.333981 -3.30931,30.39172 -170.61634,17.76398 -173.45898,16.22462 0.57425,-13.26459 -18.26539,-106.84057 52.09375,-180.710934 13.46766,-14.139754 30.26427,-21.488653 50.83398,-20.847657 z"
       sodipodi:nodetypes="sscccccscccsscsccccssccsss" />
  </g>
</svg>
