<?xml version="1.0" encoding="UTF-8" standalone="no"?>
<svg
   width="1000"
   height="1000"
   viewBox="0 0 1000 1000"
   version="1.1"
   id="svg1"
   sodipodi:docname="m.svg"
   inkscape:version="1.4.2 (f4327f4, 2025-05-13)"
   xmlns:inkscape="http://www.inkscape.org/namespaces/inkscape"
   xmlns:sodipodi="http://sodipodi.sourceforge.net/DTD/sodipodi-0.dtd"
   xmlns="http://www.w3.org/2000/svg"
   xmlns:svg="http://www.w3.org/2000/svg">
  <defs
     id="defs1" />
  <sodipodi:namedview
     id="namedview1"
     pagecolor="#ffffff"
     bordercolor="#000000"
     borderopacity="0.25"
     inkscape:document-units="px"
     showguides="false"
     inkscape:current-layer="layer1"
     inkscape:showpageshadow="2"
     inkscape:pageopacity="0.0"
     inkscape:pagecheckerboard="0"
     inkscape:deskcolor="#d1d1d1"
     inkscape:zoom="0.29175"
     inkscape:cx="359.89717"
     inkscape:cy="769.49443"
     inkscape:window-width="1865"
     inkscape:window-height="1211"
     inkscape:window-x="1133"
     inkscape:window-y="142"
     inkscape:window-maximized="0">
    <sodipodi:guide
       position="500,1244"
       orientation="0,1"
       id="guide1"
       inkscape:label="Lange Oberlaenge"
       inkscape:locked="false" />
    <sodipodi:guide
       position="500,1000"
       orientation="0,1"
       id="guide2"
       inkscape:label="Oberlaenge"
       inkscape:locked="false" />
    <sodipodi:guide
       position="500,835"
       orientation="0,1"
       id="guide3"
       inkscape:label="t-Hoehe"
       inkscape:locked="false" />
    <sodipodi:guide
       position="500,753"
       orientation="0,1"
       id="guide4"
       inkscape:label="x-Hoehe Ueberschuss"
       inkscape:locked="false" />
    <sodipodi:guide
       position="500,743"
       orientation="0,1"
       id="guide5"
       inkscape:label="x-Hoehe"
       inkscape:locked="false" />
    <sodipodi:guide
       position="500,293"
       orientation="0,1"
       id="guide6"
       inkscape:label="Grundlinie"
       inkscape:locked="false" />
    <sodipodi:guide
       position="500,283"
       orientation="0,1"
       id="guide7"
       inkscape:label="Grundlinie Ueberschuss"
       inkscape:locked="false" />
    <sodipodi:guide
       position="500,0"
       orientation="0,1"
       id="guide8"
       inkscape:label="Unterlaenge"
       inkscape:locked="false" />
    <sodipodi:guide
       position="500,-10"
       orientation="0,1"
       id="guide9"
       inkscape:label="Unterlaenge Ueberschuss"
       inkscape:locked="false" />
    <sodipodi:guide
       position="500,500"
       orientation="-1000,0"
       id="guide99"
       inkscape:label="Mitte"
       inkscape:locked="false" />
  </sodipodi:namedview>
  <g
     inkscape:label="Ebene 1"
     inkscape:groupmode="layer"
     id="layer1">
    <path
       style="fill:#000000;stroke:none"
       d="m 334.56203,247.13803 c 21.38862,-5.08743 19.09462,49.21596 13.42467,98.00346 40.00123,-28.57219 81.43149,-87.11898 145.71979,-88.5475 64.28793,-1.42809 58.57337,60.26086 60.00237,75.97594 24.28662,-20.00106 87.14597,-64.00284 111.43261,-71.14589 24.28667,-7.14304 92.86052,-16.00056 97.14654,56.85936 4.28421,72.85992 -4.24143,265.55619 -4.24143,294.12885 14.20268,11.42328 16.57476,3.20298 24.06539,0.16943 19.48581,-12.38534 50.92343,-7.05942 16.63622,37.22787 -34.28671,44.2877 -64.49581,71.72605 -133.0697,66.01152 -16.62106,-35.93236 -3.43864,-283.09973 -3.43864,-307.38637 0,-24.28662 -3.95919,-99.58692 -101.38794,-38.72101 -5.71453,78.57445 -10.20887,257.73682 -5.76944,268.26846 5.60511,13.29695 7.14353,20.51399 11.42909,26.22852 2.89507,7.326 -22.85767,48.05986 -111.43264,53.77439 -12.85758,-17.14356 -0.92181,-35.08755 0.42996,-48.57325 1.64195,-16.38062 8.98489,-228.22594 7.1108,-265.69692 -1.90419,-38.07247 -38.91736,-100.0036 -121.77783,-10.00009 -1.42809,74.28839 -2.88448,258.59889 -4.31345,275.74202 -1.42806,17.14357 -30.00115,54.28822 -104.28959,47.14474 1.42809,-50.00177 8.94103,-319.82283 6.17534,-336.74184 -1.5148,-9.26668 -1.18111,-1.65512 -6.29395,-3.12533 -15.71505,4.28425 -13.59965,5.58656 -23.60019,11.30112 -15.99838,9.14212 -30.99976,-5.68674 -23.85711,-18.39948 8.96194,-15.24694 91.4954,-106.13531 149.89913,-122.498 z"
       id="path1"
       inkscape:label="m"
       sodipodi:nodetypes="ccccscccccscsccsscccscccc" />
  </g>
</svg>
