<?xml version="1.0" encoding="UTF-8" standalone="no"?>
<svg
   width="1000"
   height="1000"
   viewBox="0 0 1000 1000"
   version="1.1"
   id="svg1"
   sodipodi:docname="e_i.svg"
   inkscape:version="1.4.2 (f4327f4, 2025-05-13)"
   xmlns:inkscape="http://www.inkscape.org/namespaces/inkscape"
   xmlns:sodipodi="http://sodipodi.sourceforge.net/DTD/sodipodi-0.dtd"
   xmlns="http://www.w3.org/2000/svg"
   xmlns:svg="http://www.w3.org/2000/svg">
  <defs
     id="defs1" />
  <sodipodi:namedview
     id="namedview1"
     pagecolor="#ffffff"
     bordercolor="#000000"
     borderopacity="0.25"
     inkscape:document-units="px"
     showguides="true"
     inkscape:current-layer="layer1"
     inkscape:showpageshadow="2"
     inkscape:pageopacity="0.0"
     inkscape:pagecheckerboard="0"
     inkscape:deskcolor="#d1d1d1"
     inkscape:zoom="0.5835"
     inkscape:cx="706.94087"
     inkscape:cy="429.30591"
     inkscape:window-width="1802"
     inkscape:window-height="1211"
     inkscape:window-x="1556"
     inkscape:window-y="85"
     inkscape:window-maximized="0">
    <sodipodi:guide
       position="500,1244"
       orientation="0,1"
       id="guide1"
       inkscape:label="Lange Oberlaenge"
       inkscape:locked="false" />
    <sodipodi:guide
       position="500,1000"
       orientation="0,1"
       id="guide2"
       inkscape:label="Oberlaenge"
       inkscape:locked="false" />
    <sodipodi:guide
       position="500,835"
       orientation="0,1"
       id="guide3"
       inkscape:label="t-Hoehe"
       inkscape:locked="false" />
    <sodipodi:guide
       position="500,753"
       orientation="0,1"
       id="guide4"
       inkscape:label="x-Hoehe Ueberschuss"
       inkscape:locked="false" />
    <sodipodi:guide
       position="500,743"
       orientation="0,1"
       id="guide5"
       inkscape:label="x-Hoehe"
       inkscape:locked="false" />
    <sodipodi:guide
       position="500,293"
       orientation="0,1"
       id="guide6"
       inkscape:label="Grundlinie"
       inkscape:locked="false" />
    <sodipodi:guide
       position="500,283"
       orientation="0,1"
       id="guide7"
       inkscape:label="Grundlinie Ueberschuss"
       inkscape:locked="false" />
    <sodipodi:guide
       position="500,0"
       orientation="0,1"
       id="guide8"
       inkscape:label="Unterlaenge"
       inkscape:locked="false" />
    <sodipodi:guide
       position="500,-10"
       orientation="0,1"
       id="guide9"
       inkscape:label="Unterlaenge Ueberschuss"
       inkscape:locked="false" />
    <sodipodi:guide
       position="500,500"
       orientation="-1000,0"
       id="guide99"
       inkscape:label="Mitte"
       inkscape:locked="false" />
    <sodipodi:guide
       position="866,499.57155"
       orientation="-1,0"
       id="guide10"
       inkscape:locked="false"
       inkscape:label=""
       inkscape:color="rgb(0,134,229)" />
  </sodipodi:namedview>
  <g
     inkscape:label="Ebene 1"
     inkscape:groupmode="layer"
     id="layer1">
    <path
       id="path1"
       style="fill:#000000;stroke:none;stroke-width:1.00002"
       inkscape:label="e"
       d="m 730.66992,246.70703 c -26.40421,20.04495 -84.85039,65.50134 -125.86914,98.6543 -44.57172,-61.78948 -93.0333,-98.46034 -135.32812,-98.35352 -48.36758,0.12217 -144.7478,52.59623 -178.13672,85.24024 -128.01212,125.15616 -58.52948,311.41076 3.77344,353.83203 150.67083,102.58987 298.36192,-80.93767 314.81445,-113.54492 8.38585,-16.61991 13.89506,-36.17578 -8.36133,-36.17578 -190.57331,169.70702 -234.53485,63.21551 -235.92578,42.3496 27.23148,-17.32902 207.66913,-154.35862 254.86523,-189.1621 1.46637,37.041 0.32607,250.51867 -2.55859,276.4746 -11.48787,21.93162 -11.48445,50.1312 13.58008,51.17579 25.0645,1.04462 129.08023,-70.64241 136.39062,-76.90821 7.3113,-6.26622 27.14574,-34.47788 -7.31836,-32.38867 -34.4641,2.08921 -29.76106,-14.01893 -32.32226,-38.99609 -2.46304,-24.01992 7.26427,-280.43525 9.35351,-287.7461 1.89421,-6.62464 14.09433,-34.68793 -6.95703,-34.45117 z m -314.93554,62.37109 c 15.99691,-4.7e-4 73.00823,47.76663 98.74218,103.40821 0,0 -156.57927,114.25188 -164.92578,121.20703 -15.30123,-18.77925 -24.85482,-104.91527 -11.77734,-148.24219 11.84304,-39.23708 62.6597,-77.06872 77.96094,-76.37305 z" />
  </g>
</svg>
